<svg width="2646" height="1724" viewBox="0 0 2646 1724" fill="none" xmlns="http://www.w3.org/2000/svg">
<g clip-path="url(#clip0_22_1167)">
<path d="M482.2 469.4C482.2 469.4 808 169.7 1144.2 65.3999C1480.5 -38.9001 1687.3 1.29987 1942.3 49.7999C2226.7 103.9 2372.6 141.7 2513.4 243.3C2550.6 288.6 2560.9 317.6 2560.9 366.4C2565.3 395.1 2582.5 419.8 2583.7 442.6C2587.4 510.9 2572.5 602 2562.1 641.4C2531.1 758.4 2455.2 803 2455.2 803C2468.2 727 2432.8 562.6 2288.5 606.2C2055.6 676.5 2082.5 1016.8 2082.5 1016.8C2082.5 1016.8 2033.7 1044.6 1949.6 1053.3C1871.4 1061.4 1352.8 1248.3 1313.7 1287.4C1274.6 1326.5 1146.7 1365.6 1146.7 1365.6C1200.4 1187.4 1115.8 1047.8 965.8 1070.3C624.6 1121.4 645.2 1519.9 645.2 1519.9C645.2 1519.9 524.9 1516.6 414.5 1488.6C260.1 1449.5 146.3 1312.6 86.3002 1234.5C25.6002 1155.6 -18.4998 1056.3 7.9002 855.3C33.9002 657.1 247.6 568.5 482.2 469.4Z" fill="#222222"/>
<path opacity="0.1" d="M1128.1 938.2C1704 679.3 2188.1 442.3 2513.4 243.3C2509.3 315.2 2484.9 384.2 2432.8 449.1C2432.8 449.1 2326.1 512.4 2278.7 547.2C2173.5 624.2 2076.1 746.4 2052.2 927.6C2049.8 945.5 2036.4 959.9 2018.6 963.4C1779.2 1010.2 1506.4 1129.7 1215.7 1288.2C1197.6 1137.2 1168 1040.9 1119.4 999.3C1099 981.9 1103.7 949.2 1128.1 938.2Z" fill="black"/>
<path opacity="0.1" d="M2468.2 630.7C2436.8 581.5 2436.7 525.9 2485.1 496.5C2533.5 467.1 2559.1 434.5 2560.7 489.6C2563.5 589.6 2530.2 670 2510.6 708.3C2506.9 715.4 2496.2 713.6 2495.1 705.7C2492.4 685.9 2485.5 657.7 2468.2 630.7Z" fill="black"/>
<path d="M1655.25 692.088C1655.4 690.726 1656.25 689.54 1657.48 688.946L1764.38 637.545C1767.12 636.224 1770.28 638.34 1770.1 641.384L1768.94 661.268C1768.85 662.709 1768 663.992 1766.7 664.627L1658.48 717.581C1655.64 718.972 1652.38 716.668 1652.75 713.525L1655.25 692.088Z" fill="#2A2A2A"/>
<path d="M2126.42 458.008C2126.47 456.58 2127.28 455.286 2128.54 454.614L2218.66 406.58C2221.43 405.105 2224.74 407.242 2224.53 410.37L2223.35 428.563C2223.26 429.953 2222.45 431.195 2221.22 431.843L2131.69 478.897C2128.98 480.325 2125.73 478.288 2125.83 475.221L2126.42 458.008Z" fill="#2A2A2A"/>
<path d="M670.2 319.7L556.8 408.3C556.8 408.3 568.5 343.8 591.6 319.7C626.5 283.3 670.2 319.7 670.2 319.7Z" fill="#222222"/>
<path d="M1108.4 825.9C1108.4 825.9 1251.1 467.7 1513 311.8C1749.5 171.1 1964.5 147.6 2301.4 180.2C2301.4 180.2 2289.7 264.7 2237.2 300.7C1987 472.7 1108.4 825.9 1108.4 825.9Z" fill="#001230"/>
<path d="M147.839 931.352C160.379 905.207 160.775 879.326 148.724 873.546C136.672 867.765 116.737 884.274 104.196 910.419C91.6562 936.563 91.2599 962.444 103.311 968.224C115.363 974.005 135.298 957.496 147.839 931.352Z" fill="#111111"/>
<path d="M6 1049.5C18.5 1130.9 49.3 1186.4 86.2 1234.4C137.7 1301.4 228.8 1411.7 351.2 1466.4C355 1466.1 332.3 1420.3 332.3 1420.3C332.3 1420.3 297.7 1362.2 208.6 1267C164.7 1220.1 6.2 1049.7 6 1049.5Z" fill="#151515"/>
<path opacity="0.1" d="M639.8 1233.7C608.8 1292.3 589.9 1354.6 585.7 1421.5C584.1 1446.3 561 1464.1 536.5 1459.6C477.3 1448.8 426.6 1429.5 390.1 1395.9C369 1376.5 369.8 1342.8 391.9 1324.5C457.9 1270 531.6 1230.5 610.1 1200.3C630.6 1192.4 650.1 1214.2 639.8 1233.7Z" fill="black"/>
<path d="M1459.6 297.4C1432 315 1406.9 334.1 1383.1 354.2L1036.1 302.5L908.8 167.2C931.4 154.9 952.2 144.2 972.3 134.5L1459.6 297.4Z" fill="#242B52"/>
<path opacity="0.19" d="M1207.3 792.6C1207.3 792.6 1210.8 786.3 1236.6 808.9C1264.7 833.6 1341.7 829.9 1371.3 822.2C1412.8 811.4 1449.6 787.2 1430.1 777.9C1381.5 754.6 1365.6 736 1348.5 734.9C1331.4 733.8 1207.3 792.6 1207.3 792.6Z" fill="black"/>
<path d="M1942.3 49.7997C1687.2 1.29974 1480.4 -38.8003 1144.2 65.3997C1086.1 83.3997 1028.2 107.3 972.4 134.4C1037.9 188.5 1223.7 248.6 1459.7 297.3C1627.4 190.4 1864.6 95.3997 2318.8 141.3C2221.9 106.3 2104.7 80.6997 1942.3 49.7997Z" fill="#001230"/>
<path d="M576.7 685.1C672.5 754.8 812.2 823.1 1038 825.8C1038 825.8 1174.5 530.8 1383.1 354.2C1145.9 305.2 972.1 232.1 908.8 167.2C670.6 296.1 482.2 469.4 482.2 469.4C436.4 509.7 449.8 592.8 576.7 685.1Z" fill="#001230"/>
<path opacity="0.5" d="M972.4 259.3L1087.9 306.4L1022.6 355.9L912.8 308.1L972.4 259.3Z" fill="#242B52"/>
<path opacity="0.5" d="M504.6 482C504.6 482 573.3 475.7 766.5 562.7C1156.5 738.2 1040.6 790.2 1019.8 788.3C992.1 785.8 707.2 758 549.7 618.4C464.5 542.8 504.6 482 504.6 482Z" fill="#242B52"/>
<path opacity="0.5" d="M1648.2 260L1709.1 236.8L1783.8 521.3L1727.1 546.9L1648.2 260Z" fill="#242B52"/>
<path opacity="0.5" d="M2095.9 181.8H2150.3L2211.7 303L2168.2 329.2L2095.9 181.8Z" fill="#242B52"/>
<path opacity="0.5" d="M1630.3 208.7C1472.3 146.3 1310.5 97.7999 1144.1 65.3999C1163.5 59.4999 1183 53.7999 1202.5 48.3999C1362.8 74.7999 1527.8 124.2 1696.4 185.3C1674.8 190.9 1652.7 198.8 1630.3 208.7Z" fill="#242B52"/>
<mask id="mask0_22_1167" style="mask-type:luminance" maskUnits="userSpaceOnUse" x="0" y="-1" width="2584" height="1521">
<path d="M482.2 469.4C482.2 469.4 808 169.7 1144.2 65.3999C1480.5 -38.9001 1687.3 1.29987 1942.3 49.7999C2226.7 103.9 2372.6 141.7 2513.4 243.3C2550.6 288.6 2560.9 317.6 2560.9 366.4C2602.1 407.1 2576 588.9 2562.1 641.4C2531.1 758.4 2455.2 803 2455.2 803C2468.2 727 2434.3 555.3 2285.8 607.5C2065.2 685.1 2082.5 1016.7 2082.5 1016.7C2082.5 1016.7 2033.7 1044.5 1949.6 1053.2C1871.4 1061.3 1352.8 1248.2 1313.7 1287.3C1274.6 1326.4 1146.7 1365.5 1146.7 1365.5C1199.6 1203.1 1105.8 1036.9 965.8 1070.2C609.7 1154.7 645.2 1519.8 645.2 1519.8C645.2 1519.8 524.9 1516.5 414.5 1488.5C260.1 1449.4 146.3 1312.5 86.3002 1234.4C25.6002 1155.5 -18.4998 1056.2 7.9002 855.2C33.9002 657.1 247.6 568.5 482.2 469.4Z" fill="white"/>
</mask>
<g mask="url(#mask0_22_1167)">
<path d="M908.8 167.2C972.1 232.2 1146 305.3 1383.1 354.2" stroke="black" stroke-width="2" stroke-miterlimit="10" stroke-linecap="round" stroke-linejoin="round"/>
<path d="M482.2 469.4C436.5 509.7 449.8 592.7 576.7 685.1C672.5 754.8 812.2 823.1 1038 825.8C1038 825.8 1207.9 456.3 1459.6 297.4C1628.7 190.7 1866.4 95.6 2318.7 141.4" stroke="black" stroke-width="2" stroke-miterlimit="10" stroke-linecap="round" stroke-linejoin="round"/>
<path d="M1108.4 825.9C1108.4 825.9 1251.1 467.7 1513 311.8C1749.5 171.1 1964.5 147.6 2301.4 180.2C2301.4 180.2 2289.7 264.7 2237.2 300.7C1987 472.7 1108.4 825.9 1108.4 825.9Z" stroke="black" stroke-width="10" stroke-miterlimit="10" stroke-linecap="round" stroke-linejoin="round"/>
<path d="M2118.2 168L2197.5 326.4C2259.4 371.8 2271.9 496.5 2230.4 558.1C2175.3 639.8 2112.7 700.9 2077.4 822.6C2042.1 944.3 2070.3 951.6 2025.6 979C1980.9 1006.4 1217.8 1286.1 1217.8 1286.1C1182.6 1091.7 1191 854.1 1108.3 825.9" stroke="black" stroke-width="2" stroke-miterlimit="10" stroke-linecap="round" stroke-linejoin="round"/>
<path d="M1674.4 232.6L1761.2 543.8C1858.2 619.3 1770.9 876 1800.7 1067.8" stroke="black" stroke-width="2" stroke-miterlimit="10" stroke-linecap="round" stroke-linejoin="round"/>
<path d="M2437.1 442C2408.7 499.5 2396.1 568.4 2413.4 635.4" stroke="black" stroke-width="2" stroke-miterlimit="10" stroke-linecap="round" stroke-linejoin="round"/>
<path d="M972.4 134.5C1037.9 188.6 1223.7 248.7 1459.7 297.4" stroke="black" stroke-width="2" stroke-miterlimit="10" stroke-linecap="round" stroke-linejoin="round"/>
<path d="M1038 825.9C1038 825.9 1038.7 859 1006 875.1C973.3 891.2 751.1 995.4 751.1 995.4L177.1 1047.5C100 1004.7 58.5002 939.7 44.2002 895.6" stroke="black" stroke-width="2" stroke-miterlimit="10" stroke-linecap="round" stroke-linejoin="round"/>
<path d="M751.1 995.4C751.1 995.4 815.7 1031.5 829.3 1125.7" stroke="black" stroke-width="2" stroke-miterlimit="10" stroke-linecap="round" stroke-linejoin="round"/>
</g>
<mask id="mask1_22_1167" style="mask-type:luminance" maskUnits="userSpaceOnUse" x="0" y="-1" width="2584" height="1521">
<path d="M482.2 469.4C482.2 469.4 808 169.7 1144.2 65.3999C1480.5 -38.9001 1687.3 1.29987 1942.3 49.7999C2226.7 103.9 2372.6 141.7 2513.4 243.3C2550.6 288.6 2560.9 317.6 2560.9 366.4C2602.1 407.1 2576 588.9 2562.1 641.4C2531.1 758.4 2455.2 803 2455.2 803C2468.2 727 2434.3 555.3 2285.8 607.5C2065.2 685.1 2082.5 1016.7 2082.5 1016.7C2082.5 1016.7 2033.7 1044.5 1949.6 1053.2C1871.4 1061.3 1352.8 1248.2 1313.7 1287.3C1274.6 1326.4 1146.7 1365.5 1146.7 1365.5C1199.6 1203.1 1105.8 1036.9 965.8 1070.2C609.7 1154.7 645.2 1519.8 645.2 1519.8C645.2 1519.8 524.9 1516.5 414.5 1488.5C260.1 1449.4 146.3 1312.5 86.3002 1234.4C25.6002 1155.5 -18.4998 1056.2 7.9002 855.2C33.9002 657.1 247.6 568.5 482.2 469.4Z" fill="white"/>
</mask>
<g mask="url(#mask1_22_1167)">
<path opacity="0.1" d="M-61.3 1049.5C-41.7 835.4 181.6 693 576.7 685.1C920.6 310.5 1312.2 -0.000101089 1696.5 9.0999L1846.5 -106.6C1846.5 -106.6 1040.1 -55.8001 1015.2 -48.0001C990.3 -40.2001 496.8 217.9 458.2 243.3C419.6 268.7 -176 759.9 -176 759.9L-61.3 1049.5Z" fill="white" fill-opacity="0.33"/>
</g>
<path d="M1164.3 773.3C1164.3 773.3 1261.3 693.5 1301.5 697.8C1332.8 701.1 1405.4 713.1 1417.1 756.6C1428.8 800.1 1375.1 816 1308.6 821.2C1242.1 826.4 1199.1 810.8 1184.5 800.3C1169.8 789.8 1164.3 773.3 1164.3 773.3Z" fill="#222222"/>
<mask id="mask2_22_1167" style="mask-type:luminance" maskUnits="userSpaceOnUse" x="1164" y="697" width="255" height="126">
<path d="M1164.3 773.3C1164.3 773.3 1261.3 693.5 1301.5 697.8C1332.8 701.1 1405.4 713.1 1417.1 756.6C1428.8 800.1 1375.1 816 1308.6 821.2C1242.1 826.4 1199.1 810.8 1184.5 800.3C1169.8 789.8 1164.3 773.3 1164.3 773.3Z" fill="white"/>
</mask>
<g mask="url(#mask2_22_1167)">
<path opacity="0.1" d="M1384.5 711.6C1384.5 711.6 1384.5 757.2 1309.8 765.5C1271 769.8 1149.3 773.3 1149.3 773.3L1171.8 829.6L1411.3 864.1L1455.3 764.7L1418.8 699.9L1384.5 711.6Z" fill="black"/>
</g>
<path opacity="0.1" d="M1108.4 825.9C1108.4 825.9 1251.1 467.7 1513 311.8C1749.5 171.1 1964.5 147.6 2301.4 180.2C1820 246.2 1431.5 477.9 1108.4 825.9Z" fill="white"/>
<path opacity="0.19" d="M217.3 846.1L203.6 834.6L233.3 808.3L178.1 825.9L191.8 837.4L162.1 863.7L217.3 846.1Z" fill="black"/>
<path d="M217.3 842.6L203.6 831L233.3 804.8L178.1 822.3L191.8 833.9L162.1 860.1L217.3 842.6Z" fill="#FFFF00"/>
<g filter="url(#filter0_i_22_1167)">
<path d="M31.2999 773.8C20.0999 834.2 27.1999 865 50.0999 910.9C52.6999 797.8 120.5 683.3 146.3 639.9C93.8999 680.2 50.3999 726.5 31.2999 773.8Z" fill="#333344"/>
<path d="M117.164 674.484C90.0924 723.801 54.0723 799.782 44.4636 878.634C40.361 867.76 37.4877 857.386 35.8189 846.568C32.7916 826.943 33.6486 805.319 39.0188 776.056C53.2314 741.351 81.3797 706.723 117.164 674.484Z" stroke="black" stroke-opacity="0.25" stroke-width="16"/>
<path d="M174.3 1047.5C197.3 1004.3 524.8 996.5 751.1 995.4C751.1 995.4 606.6 1084.6 457.8 1103.2C278.8 1125.7 174.3 1047.5 174.3 1047.5Z" fill="#333344"/>
<path d="M456.808 1095.26L456.802 1095.26C368.675 1106.34 299.037 1092.62 251.535 1076.23C227.772 1068.02 209.539 1059.15 197.303 1052.37C193.109 1050.05 189.62 1047.97 186.857 1046.25C189.88 1044.33 193.974 1042.36 199.215 1040.39C210.166 1036.29 225.198 1032.54 243.738 1029.16C280.759 1022.42 330.566 1017.38 386.991 1013.64C489.793 1006.84 613.754 1004.38 720.558 1003.59C704.933 1012.06 683.087 1023.28 656.967 1035.03C602.588 1059.5 530.088 1086.1 456.808 1095.26Z" stroke="black" stroke-opacity="0.25" stroke-width="16"/>
</g>
<path d="M2560.9 366.5L2432.8 449.1C2481.6 346.8 2513.4 243.3 2513.4 243.3C2547.6 266.1 2564.1 332.6 2560.9 366.5Z" fill="#990000"/>
</g>
<defs>
<filter id="filter0_i_22_1167" x="26.085" y="639.9" width="725.015" height="467.367" filterUnits="userSpaceOnUse" color-interpolation-filters="sRGB">
<feFlood flood-opacity="0" result="BackgroundImageFix"/>
<feBlend mode="normal" in="SourceGraphic" in2="BackgroundImageFix" result="shape"/>
<feColorMatrix in="SourceAlpha" type="matrix" values="0 0 0 0 0 0 0 0 0 0 0 0 0 0 0 0 0 0 127 0" result="hardAlpha"/>
<feOffset/>
<feGaussianBlur stdDeviation="32"/>
<feComposite in2="hardAlpha" operator="arithmetic" k2="-1" k3="1"/>
<feColorMatrix type="matrix" values="0 0 0 0 0 0 0 0 0 0 0 0 0 0 0 0 0 0 0.5 0"/>
<feBlend mode="normal" in2="shape" result="effect1_innerShadow_22_1167"/>
</filter>
<clipPath id="clip0_22_1167">
<rect width="2645.7" height="1723.3" fill="white"/>
</clipPath>
</defs>
</svg>
