<svg width="2646" height="1724" viewBox="0 0 2646 1724" fill="none" xmlns="http://www.w3.org/2000/svg">
<path d="M1730.6 381.8L1678.7 354.2L1513.9 677.4L1566 705.1L1730.6 381.8Z" fill="#242B52"/>
<path d="M1462.7 449.3C1417.2 538.5 1440.1 640.7 1513.9 677.4C1587.7 714.1 1684.4 671.5 1729.9 582.3C1775.4 493 1752.5 390.9 1678.7 354.2C1604.9 317.5 1508.2 360.1 1462.7 449.3Z" fill="#1A1A1A"/>
<path d="M1530.5 484.8C1485 574.1 1501 672.7 1566.1 705C1631.2 737.4 1720.8 691.2 1766.3 602C1811.8 512.7 1795.8 414.1 1730.7 381.8C1665.5 349.4 1575.9 395.6 1530.5 484.8Z" fill="black"/>
<path d="M1560.4 499.8C1522.9 573.5 1534.7 654.2 1586.7 680.1C1638.8 706 1711.4 667.2 1748.9 593.5C1786.4 519.8 1774.6 439.1 1722.6 413.2C1670.5 387.3 1597.9 426.1 1560.4 499.8Z" fill="#333333"/>
<path d="M1566.1 502.5C1535 563.6 1545.1 630.8 1588.8 652.5C1632.5 674.2 1693.1 642.3 1724.3 581.1C1755.4 520 1745.3 452.8 1701.6 431.1C1657.9 409.4 1597.2 441.4 1566.1 502.5Z" fill="#E9E9EA"/>
<path d="M1569.9 504.5C1543.1 557.1 1551.8 614.8 1589.3 633.5C1626.8 652.1 1678.9 624.6 1705.7 572C1732.5 519.4 1723.8 461.7 1686.3 443C1648.8 424.3 1596.7 451.9 1569.9 504.5Z" fill="black"/>
<path d="M1611.5 524.7C1597.6 552.1 1602.7 582.4 1622.9 592.5C1643.1 602.6 1670.9 588.5 1684.8 561.2C1698.7 533.8 1693.6 503.5 1673.4 493.4C1653.2 483.3 1625.5 497.3 1611.5 524.7Z" fill="#333333"/>
<path d="M1629.5 533.6C1624.6 543.3 1626.4 554.1 1633.5 557.6C1640.7 561.2 1650.5 556.2 1655.4 546.5C1660.3 536.8 1658.5 526 1651.4 522.5C1644.2 518.9 1634.4 523.9 1629.5 533.6Z" fill="#242B52"/>
<path d="M498.2 747.4L440.8 700.7L158.7 1059.2L216.2 1106L498.2 747.4Z" fill="#242B52"/>
<path d="M151.2 765.3C73.3002 864.3 76.6002 995.9 158.7 1059.2C240.8 1122.5 370.5 1093.6 448.4 994.6C526.3 895.6 523 764 440.9 700.7C358.8 637.4 229.1 666.3 151.2 765.3Z" fill="#1A1A1A"/>
<path d="M226.1 825.6C148.2 924.6 143.8 1050.2 216.2 1106C288.6 1161.8 410.4 1126.8 488.3 1027.8C566.2 928.8 570.6 803.2 498.2 747.4C425.8 691.6 304 726.6 226.1 825.6Z" fill="black"/>
<path d="M260.9 852.5C197.7 932.9 192 1033.2 248.1 1076.5C304.3 1119.8 401.1 1089.7 464.3 1009.2C527.5 928.8 533.2 828.5 477.1 785.2C420.9 742 324.1 772.1 260.9 852.5Z" fill="#333333"/>
<path d="M265.8 856.2C212.5 924 208.6 1009.4 257.2 1046.8C305.8 1084.3 388.4 1059.6 441.8 991.8C495.1 924 499 838.6 450.4 801.2C401.7 763.8 319.1 788.4 265.8 856.2Z" fill="#E9E9EA"/>
<path d="M270 859.5C224.1 917.8 220.7 991.2 262.4 1023.3C304.1 1055.5 375.1 1034.2 421 975.9C466.9 917.6 470.3 844.2 428.6 812.1C386.9 779.9 315.9 801.1 270 859.5Z" fill="black"/>
<path d="M316.4 894.6C292.5 925 291.4 963.7 313.9 981C336.4 998.4 374 987.8 397.9 957.5C421.8 927.1 422.9 888.4 400.4 871.1C377.9 853.7 340.3 864.3 316.4 894.6Z" fill="#333333"/>
<path d="M336.4 910C327.9 920.8 327.5 934.5 335.5 940.6C343.5 946.8 356.8 943 365.3 932.3C373.8 921.5 374.2 907.8 366.2 901.7C358.2 895.5 344.8 899.2 336.4 910Z" fill="#242B52"/>
<path d="M1620.9 534.7C1614.3 549.4 1617.3 565 1627.4 569.5C1637.5 574 1651.1 565.8 1657.6 551.1C1664.2 536.4 1661.2 520.8 1651.1 516.3C1641 511.8 1627.5 520 1620.9 534.7Z" fill="#5D6E81"/>
<path d="M1651.2 516.2L1719.6 546.8L1696.9 601.2L1627.4 569.4L1651.2 516.2Z" fill="#5D6E81"/>
<path d="M1689.8 565.8C1683.2 580.7 1686.3 596.5 1696.9 601.2C1707.4 605.9 1721.4 597.7 1728 582.8C1734.6 567.9 1731.5 552.1 1720.9 547.4C1710.4 542.7 1696.5 550.9 1689.8 565.8Z" fill="#7D8191"/>
<path d="M1637.8 723.1L1849.6 631.3L1872 556.8L2233.6 705.8L2219.5 787.4L2025.8 921L1637.8 723.1Z" fill="#242B52"/>
<path d="M1726.44 539.719C1727.94 533.151 1721.39 526.048 1711.81 523.853C1702.22 521.659 1693.24 525.205 1691.73 531.773C1690.23 538.341 1696.78 545.444 1706.36 547.638C1715.94 549.833 1724.93 546.287 1726.44 539.719Z" fill="#9FA8B6"/>
<path d="M1744.77 459.292L1710.16 451.368L1691.73 531.887L1726.33 539.81L1744.77 459.292Z" fill="#9FA8B6"/>
<path opacity="0.2" d="M1711 546.1C1715.7 545.7 1720.1 544.7 1723.5 541.1L1742.4 458.6L1731.6 456.1L1711 546.1Z" fill="white"/>
<path opacity="0.2" d="M1700.8 542.6C1698.1 541.1 1695.7 539.1 1694.1 534.5L1713 452L1721.1 453.9L1700.8 542.6Z" fill="black"/>
<path d="M1744.91 459.128C1746.21 453.475 1739.49 447.113 1729.91 444.919C1720.32 442.725 1711.5 445.529 1710.21 451.182C1708.92 456.834 1715.64 463.196 1725.22 465.39C1734.8 467.584 1743.62 464.78 1744.91 459.128Z" fill="#E6E7E8"/>
<path d="M1752.45 464.871C1754.68 455.127 1744.96 444.589 1730.75 441.335C1716.54 438.08 1703.21 443.342 1700.98 453.086C1698.74 462.831 1708.46 473.368 1722.67 476.622C1736.88 479.877 1750.21 474.616 1752.45 464.871Z" fill="#9FA8B6"/>
<path d="M1779.63 345.412L1728.26 333.649L1700.9 453.159L1752.27 464.922L1779.63 345.412Z" fill="#9FA8B6"/>
<path opacity="0.2" d="M1729.6 474.4C1736.6 473.9 1743.1 472.3 1748.2 467L1776.2 344.6L1760.1 340.9L1729.6 474.4Z" fill="white"/>
<path opacity="0.2" d="M1714.3 469.1C1710.3 466.9 1706.7 464 1704.4 457.1L1732.4 334.7L1744.4 337.5L1714.3 469.1Z" fill="black"/>
<path d="M1779.81 345.322C1781.73 336.924 1771.77 327.477 1757.55 324.223C1743.34 320.969 1730.26 325.139 1728.34 333.538C1726.41 341.936 1736.38 351.383 1750.59 354.637C1764.8 357.891 1777.88 353.721 1779.81 345.322Z" fill="#D0D2D3"/>
<path d="M1544.2 675.4L1679.1 610.8L1872 556.8V521.6L1681.7 573L1506.5 656.1L1544.2 675.4Z" fill="#9FA8B6"/>
<path d="M1835.1 506.9L2234 666.4L2262.6 656.7L1877 496.5L1835.1 506.9Z" fill="#E6E7E8"/>
<path d="M2233.6 705.8L1872 556.8V521.6L2233.6 666.2V705.8Z" fill="#7D8191"/>
<path d="M1506.5 656.1L1675 576.2C1679.5 574.1 1684.2 572.3 1689 571.1L1872.1 521.7L1835.2 506.9L1673 550.3C1665.8 552.2 1658.9 554.8 1652.2 558L1476.9 641L1506.5 656.1Z" fill="#E6E7E8"/>
<path d="M1544.2 675.4L1637.8 723.1L1849.6 631.3L1872 556.8L1679.1 610.8L1544.2 675.4Z" fill="#43596D"/>
<path d="M1757.2 590.1C1740.7 627 1748 666.2 1773.5 677.6C1799 689 1833 668.3 1849.5 631.3C1866 594.4 1858.7 555.2 1833.2 543.8C1807.8 532.4 1773.7 553.1 1757.2 590.1Z" fill="#303A66"/>
<path d="M1833.3 543.8L1976.4 607.7L1918.7 744.3L1773.6 677.6L1833.3 543.8Z" fill="#303A66"/>
<path d="M1900.9 655.2C1884.2 692.6 1892.2 732.5 1918.7 744.3C1945.2 756.1 1980.2 735.4 1996.9 698C2013.6 660.6 2005.6 620.7 1979.1 608.9C1952.6 597.1 1917.6 617.8 1900.9 655.2Z" fill="#00C48B"/>
<path d="M1916.6 662.2C1903.8 690.8 1909.3 721.1 1928.8 729.8C1948.3 738.5 1974.5 722.4 1987.3 693.7C2000.1 665.1 1994.6 634.8 1975.1 626.1C1955.6 617.4 1929.4 633.6 1916.6 662.2Z" fill="#E6E7E8"/>
<path d="M1921.6 664.4C1910.1 690.2 1914.7 717.3 1931.9 725C1949.1 732.7 1972.4 718 1983.9 692.2C1995.4 666.4 1990.8 639.3 1973.6 631.6C1956.4 624 1933.1 638.7 1921.6 664.4Z" fill="#E6E7E8"/>
<path d="M1803.1 593C1783.7 636.5 1792.3 682.7 1822.4 696.1C1852.5 709.5 1892.6 685.1 1912 641.5C1931.4 598 1922.8 551.8 1892.7 538.4C1862.6 525.1 1822.5 549.5 1803.1 593Z" fill="#303A66"/>
<path d="M1892.7 538.5L2061.5 613.8L1993.4 774.8L1822.3 696.2L1892.7 538.5Z" fill="#303A66"/>
<path d="M1972.5 669.8C1952.8 713.9 1962.2 760.9 1993.4 774.8C2024.6 788.7 2065.9 764.3 2085.6 720.2C2105.3 676.1 2095.9 629.1 2064.7 615.2C2033.4 601.3 1992.1 625.7 1972.5 669.8Z" fill="#43596D"/>
<path d="M1991 678C1975.9 711.7 1982.4 747.4 2005.4 757.7C2028.4 768 2059.3 748.9 2074.3 715.2C2089.4 681.4 2082.9 645.8 2059.9 635.5C2036.9 625.3 2006 644.3 1991 678Z" fill="#303A66"/>
<path d="M1993.8 679.3C1981 708 1984.8 737.7 2002.4 745.5C2020 753.3 2044.6 736.4 2057.4 707.7C2070.2 679 2066.4 649.3 2048.8 641.5C2031.3 633.6 2006.7 650.6 1993.8 679.3Z" fill="#242B52"/>
<path d="M1807.1 534.3L1913.1 505.6L2054.6 564.2L1946.9 594.4L1807.1 534.3Z" fill="#43596D"/>
<path d="M1807.1 534.3V564.9L1946.1 629.7L1946.9 594.4L1807.1 534.3Z" fill="#242B52"/>
<path d="M1946.9 594.4L2054.6 564.2L2053.4 596.4L2035.5 602C2017.3 599.6 2004 605.8 1992.6 615.3L1946.2 629.7L1946.9 594.4Z" fill="#303A66"/>
<path d="M1805.3 549.7L1792.1 557.3V569.1L1820.5 582L1835.1 577.9V563.3L1805.3 549.7Z" fill="#404079"/>
<path d="M1706.4 758.8L1730.5 748.2L1696.1 730.9C1691.2 728.4 1688.2 723.5 1688.3 717.9C1688.4 712.4 1691.6 707.5 1696.6 705.3L1740.5 685.5C1742.5 684.6 1743.8 682.6 1743.9 680.4L1744.5 640.4C1745 606.4 1765.5 576.1 1796.1 562.6" stroke="#00C48B" stroke-width="5" stroke-miterlimit="10" stroke-linecap="round" stroke-linejoin="round"/>
<path d="M1723.7 773L1749.1 761.8C1754.3 759.5 1757.7 754.5 1757.8 748.8C1757.9 743.1 1754.9 738 1749.8 735.4L1716.1 718.5L1748.8 703.8C1757.8 699.7 1763.8 690.7 1764 680.8L1764.6 640.8C1765 612.5 1783.4 587.5 1810.3 578.7L1818.9 575.5" stroke="#00C48B" stroke-width="5" stroke-miterlimit="10" stroke-linecap="round" stroke-linejoin="round"/>
<path d="M1719.6 763.9L1745 752.7C1748.6 751.1 1748.7 746.1 1745.2 744.4L1700.5 722C1697.4 720.4 1697.5 715.9 1700.7 714.5L1744.6 694.7C1750.2 692.2 1753.8 686.7 1753.9 680.6L1754.5 640.6C1755 608 1776.1 579.3 1807.1 569.1" stroke="#00C48B" stroke-width="5" stroke-miterlimit="10" stroke-linecap="round" stroke-linejoin="round"/>
<path d="M1817 612.6C1807.9 643.8 1812 684.2 1823.9 691.6C1823.9 691.6 1784.5 709.3 1770.8 715.4C1757.1 721.5 1758.5 691.6 1772.2 670.1C1785.9 648.6 1817 612.6 1817 612.6Z" fill="#303A66"/>
<path d="M1894.3 778.2L1764.9 715.4L1817 612.6L1947.3 671.9L1894.3 778.2Z" fill="#303A66"/>
<path d="M1947.3 671.9C1937.5 705.4 1941.9 748.7 1954.7 756.6C1954.7 756.6 1916.9 771.9 1902.2 778.4C1887.5 784.9 1884.6 756.5 1899.3 733.4C1914 710.5 1947.3 671.9 1947.3 671.9Z" fill="#43596D"/>
<path d="M633.4 838.9L1389.2 623.2L1439.4 621.9L2025.8 921L2017.3 951L1201.5 1246.8L1125.7 1240.2L615.1 870.8L633.4 838.9Z" fill="#E6E7E8"/>
<path d="M2017.3 951V1009.1L1201.5 1314.6V1246.8L2017.3 951Z" fill="#9FA8B6"/>
<path d="M2025.8 921L2025.6 979L2017.3 1009.1V951L2025.8 921Z" fill="#7D8191"/>
<path d="M1201.5 1246.8L1125.7 1240.2L1125.2 1306.8L1201.5 1314.6V1246.8Z" fill="#7D8191"/>
<path d="M1125.2 1306.8L615.1 923.3V870.8L1125.7 1240.2L1125.2 1306.8Z" fill="#7D8191"/>
<path d="M1986.6 901L2025.8 921L2219.5 787.4L2233.6 705.8L2044.8 770.3L1986.6 901Z" fill="#566575"/>
<path d="M403.8 956C416.226 956 426.3 949.061 426.3 940.5C426.3 931.94 416.226 925 403.8 925C391.373 925 381.3 931.94 381.3 940.5C381.3 949.061 391.373 956 403.8 956Z" fill="#9FA8B6"/>
<path d="M426.3 835.9H381.3V940.5H426.3V835.9Z" fill="#9FA8B6"/>
<path opacity="0.2" d="M409.2 952.8C414.9 951 420 948.4 423.3 943.1V836H409.2V952.8Z" fill="white"/>
<path opacity="0.2" d="M395.5 951.3C391.7 950.2 388.2 948.5 385 943.2V836H395.5V951.3Z" fill="black"/>
<path d="M403.8 849.2C416.226 849.2 426.3 843.246 426.3 835.9C426.3 828.555 416.226 822.6 403.8 822.6C391.373 822.6 381.3 828.555 381.3 835.9C381.3 843.246 391.373 849.2 403.8 849.2Z" fill="#E6E7E8"/>
<path d="M403.8 863.7C422.246 863.7 437.2 853.447 437.2 840.8C437.2 828.153 422.246 817.9 403.8 817.9C385.354 817.9 370.4 828.153 370.4 840.8C370.4 853.447 385.354 863.7 403.8 863.7Z" fill="#9FA8B6"/>
<path d="M437.2 685.7H370.4V840.9H437.2V685.7Z" fill="#9FA8B6"/>
<path opacity="0.2" d="M411.8 859.1C420.2 856.5 427.8 852.6 432.7 844.8V685.8H411.8V859.1Z" fill="white"/>
<path opacity="0.2" d="M391.5 856.8C385.9 855.2 380.7 852.6 375.9 844.7V685.7H391.5V856.8Z" fill="black"/>
<path d="M403.8 705.5C422.246 705.5 437.2 696.635 437.2 685.7C437.2 674.765 422.246 665.9 403.8 665.9C385.354 665.9 370.4 674.765 370.4 685.7C370.4 696.635 385.354 705.5 403.8 705.5Z" fill="#D0D2D3"/>
<path d="M680.4 972.3L980.2 1193.8L572.9 1331.5L234.6 1028.2L579.9 928.3L670.1 951L680.4 972.3Z" fill="#242B52"/>
<path d="M334.1 907.4C323.9 919.8 323.3 936.2 332.9 944C342.4 951.8 358.4 948 368.6 935.6C378.8 923.2 379.4 906.8 369.8 899C360.3 891.2 344.3 895 334.1 907.4Z" fill="#5D6E81"/>
<path d="M369.9 899L434.1 951.6L397.9 998.2L332.9 944L369.9 899Z" fill="#5D6E81"/>
<path d="M398.7 960.8C388.4 973.4 388 990.2 397.9 998.3C407.8 1006.4 424.2 1002.8 434.5 990.2C444.8 977.6 445.2 960.8 435.3 952.7C425.4 944.5 409 948.2 398.7 960.8Z" fill="#242B52"/>
<path d="M2005.6 910.7L2063.1 768.2L2262.7 696.3L2262.6 656.7L2042.1 731.4L1973.6 894.4L2005.6 910.7Z" fill="#5D6E81"/>
<path d="M1973.6 894.4L2029.4 761.7C2037.5 742.4 2053.4 727.6 2073.2 720.8L2234 666.4L2193.5 650.2L2018.1 706.4C1996.9 713.2 1979.8 728.9 1971.1 749.4L1921.2 867.7L1973.6 894.4Z" fill="#E6E7E8"/>
<path d="M336 1011.6L567.8 946.8C580.8 943.2 594.7 943.5 607.5 947.8L680.4 972.3L670.1 910.6L582.5 898.2L297.6 979.4L336 1011.6Z" fill="#9FA8B6"/>
<path d="M297.6 979.4L562.6 903.9C575.7 900.2 589.5 899.2 603 901.1L670.1 910.6L631 882.3L579.1 877.8C561.1 876.2 543 877.9 525.7 882.9L269 955.4L297.6 979.4Z" fill="#E6E7E8"/>
<path d="M2150.44 758.731C2161.14 758.174 2169.66 754.862 2169.48 751.332C2169.3 747.802 2160.47 745.391 2149.77 745.947C2139.07 746.504 2130.55 749.816 2130.73 753.346C2130.91 756.876 2139.74 759.287 2150.44 758.731Z" fill="#9FA8B6"/>
<path d="M2169.4 751.3L2130.7 753.3L2126.3 654.1L2165 652.1L2169.4 751.3Z" fill="#9FA8B6"/>
<path opacity="0.2" d="M2155 757.1C2159.8 756.1 2164.2 754.8 2166.9 752.5L2162.4 652.3L2150.3 652.9L2155 757.1Z" fill="black"/>
<path opacity="0.2" d="M2143.2 757.1C2140 756.8 2136.9 756.3 2134 754.2L2129.5 654L2138.6 653.5L2143.2 757.1Z" fill="white"/>
<path d="M2165 652.1C2165.2 655.1 2156.6 658.1 2146 658.6C2135.3 659.2 2126.5 657.1 2126.4 654.1C2126.2 651.1 2134.8 648.1 2145.4 647.6C2156 647.1 2164.8 649.1 2165 652.1Z" fill="#E6E7E8"/>
<path d="M2146.3 664.722C2162.13 663.899 2174.74 658.984 2174.47 653.744C2174.2 648.504 2161.14 644.924 2145.31 645.747C2129.48 646.57 2116.87 651.485 2117.14 656.724C2117.42 661.964 2130.47 665.545 2146.3 664.722Z" fill="#9FA8B6"/>
<path d="M2166.06 491.645L2108.73 494.625L2117.16 656.714L2174.48 653.734L2166.06 491.645Z" fill="#9FA8B6"/>
<path opacity="0.2" d="M2153 662.3C2160.2 660.8 2166.6 658.9 2170.6 655.4L2162.1 491.7L2144.2 492.6L2153 662.3Z" fill="white"/>
<path opacity="0.2" d="M2135.6 662.3C2130.8 661.9 2126.2 661.1 2121.9 658L2113.4 494.3L2126.8 493.6L2135.6 662.3Z" fill="black"/>
<path d="M2137.83 501.314C2153.66 500.491 2166.3 496.158 2166.07 491.635C2165.83 487.112 2152.81 484.113 2136.98 484.936C2121.15 485.759 2108.51 490.092 2108.74 494.615C2108.98 499.138 2122 502.137 2137.83 501.314Z" fill="#D0D2D3"/>
<path d="M427.5 957.5L578.6 915.3L694.6 1000.3L543.4 1043.3L427.5 957.5Z" fill="#404079"/>
<path d="M427.5 957.5V1035.8L542.6 1128.1L543.4 1043.3L427.5 957.5Z" fill="#242B52"/>
<path d="M543.4 1043.3L694.6 1000.3L693.4 1080.8L542.6 1128.1L543.4 1043.3Z" fill="#303A66"/>
<path d="M792.8 1055.4L814.1 1042.8L847.1 1066.7L848.8 1091.9L831 1096.9L792.8 1071.7V1055.4Z" fill="#404079"/>
<path d="M821.5 1082.3L596.7 1150.6C594.5 1151.3 592.3 1151.6 590.1 1151.6C585.4 1151.6 580.7 1150.1 576.8 1147.2C571 1142.9 567.7 1136.4 567.7 1129.2V1089.8" stroke="#00C48B" stroke-width="5" stroke-miterlimit="10" stroke-linecap="round" stroke-linejoin="round"/>
<path d="M587.7 1082.3V1129.2C587.7 1130.2 588.2 1130.8 588.7 1131.2C589.2 1131.5 589.9 1131.9 590.9 1131.6L800.3 1067.8" stroke="#00C48B" stroke-width="5" stroke-miterlimit="10" stroke-linecap="round" stroke-linejoin="round"/>
<path d="M811 1074.5L593.8 1141.1C585.8 1143.5 577.7 1137.6 577.7 1129.2V1087" stroke="#00C48B" stroke-width="5" stroke-miterlimit="10" stroke-linecap="round" stroke-linejoin="round"/>
<path d="M552.6 1097.8L561 1103.2L596 1090.7V1074.5L587.7 1059.1L552.6 1070V1097.8Z" fill="#404079"/>
<path d="M630.1 1074.2C608.6 1099.7 605.5 1132.4 623.1 1147.2C640.7 1162 672.4 1153.4 693.9 1127.8C715.4 1102.3 718.5 1069.6 700.9 1054.8C683.3 1040 651.6 1048.7 630.1 1074.2Z" fill="#43596D"/>
<path d="M700.9 1054.8L734.5 1083.1L656.4 1177.2L623.2 1147.2L700.9 1054.8Z" fill="#43596D"/>
<path d="M670.1 1106.6C648.4 1132.4 645.6 1165.9 663.9 1181.3C682.2 1196.7 714.7 1188.2 736.4 1162.4C758.1 1136.6 760.9 1103.1 742.6 1087.7C724.2 1072.3 691.8 1080.8 670.1 1106.6Z" fill="#242B52"/>
<path d="M684.4 1118.6C669.4 1136.4 666.9 1158.9 678.8 1168.9C690.7 1178.9 712.4 1172.6 727.4 1154.8C742.4 1137 744.9 1114.5 733 1104.5C721.1 1094.5 699.3 1100.8 684.4 1118.6Z" fill="#242B52"/>
<path d="M269 955.4L579.9 1216.5L509.6 1240.2L208.5 972.5L269 955.4Z" fill="#E6E7E8"/>
<path d="M509.6 1240.2L516.9 1402.5L219.7 1124.2L208.5 972.5L509.6 1240.2Z" fill="#7D8191"/>
<path d="M516.9 1402.5L584.6 1380.5L579.9 1216.5L509.6 1240.2L516.9 1402.5Z" fill="#9FA8B6"/>
<path d="M511.6 1286.1L873.8 1168C889.9 1162.8 907.5 1164.9 922 1173.7L1059.2 1257.2V1192.1L897.1 1109.7L579.9 1216.5L511.6 1286.1Z" fill="#9FA8B6"/>
<path d="M509.6 1240.2L870 1118.9C887.4 1113 906.4 1114.4 922.8 1122.8L1059.3 1192.2L965 1124L891.7 1089.5C874.4 1081.4 854.7 1080.3 836.6 1086.4L475.2 1209.6L509.6 1240.2Z" fill="#E6E7E8"/>
<path d="M656 824.8L1384.6 619.6L1432.9 618.4L1998.3 902.9L1990.1 931.4L1203.7 1212.9L1130.6 1206.6L638.4 855.2L656 824.8Z" fill="#444444"/>
<path d="M1990.1 931.4V939.1L1203.7 1229.1V1212.9L1990.1 931.4Z" fill="#303A66"/>
<path d="M1998.3 902.9L1998 910.5L1990.1 939.1V931.4L1998.3 902.9Z" fill="#00908B"/>
<path d="M1203.7 1212.9L1130.6 1206.6L1130.1 1222.4L1203.7 1229.1V1212.9Z" fill="#242B52"/>
<path d="M1130.1 1222.4L638.4 862.5V855.2L1130.6 1206.6L1130.1 1222.4Z" fill="#242B52"/>
<path d="M982.1 943.7L871.5 978.2L688.8 847.2L795.4 816.5L982.1 943.7Z" fill="#242B52"/>
<path d="M1153.9 890L1048.4 922.9L859.4 798L961.4 768.6L1153.9 890Z" fill="#242B52"/>
<path d="M1317.9 838.7L1217.2 870.2L1022.6 751L1120.2 722.8L1317.9 838.7Z" fill="#242B52"/>
<path d="M1474.7 789.6L1378.4 819.8L1178.9 705.9L1272.5 678.9L1474.7 789.6Z" fill="#242B52"/>
<path d="M1624.8 742.7L1532.6 771.6L1328.7 662.7L1418.5 636.8L1624.8 742.7Z" fill="#242B52"/>
<path d="M1286 1150.8L1169.6 1192.1L950.7 1035.1L1063 998.8L1286 1150.8Z" fill="#242B52"/>
<path d="M1466.3 1086.8L1355.7 1126.1L1130.2 977L1237.2 942.4L1466.3 1086.8Z" fill="#242B52"/>
<path d="M1637.6 1026L1532.4 1063.3L1301.3 921.7L1403.3 888.7L1637.6 1026Z" fill="#242B52"/>
<path d="M1800.7 968.1L1700.6 1003.6L1464.5 868.9L1561.9 837.4L1800.7 968.1Z" fill="#242B52"/>
<path d="M1956.2 912.9L1860.7 946.8L1620.4 818.4L1713.5 788.3L1956.2 912.9Z" fill="#242B52"/>
<path d="M979.4 938.9L868.8 973.5L686.1 842.4L792.7 811.7L979.4 938.9Z" fill="#43596D"/>
<path d="M1151.2 885.2L1045.7 918.2L856.7 793.3L958.6 763.9L1151.2 885.2Z" fill="#43596D"/>
<path d="M1315.2 833.9L1214.4 865.4L1019.9 746.2L1117.5 718.1L1315.2 833.9Z" fill="#43596D"/>
<path d="M1472 784.9L1375.7 815L1176.2 701.2L1269.8 674.2L1472 784.9Z" fill="#43596D"/>
<path d="M1622.1 738L1529.9 766.8L1326 658L1415.8 632.1L1622.1 738Z" fill="#43596D"/>
<path d="M1283.3 1146L1166.8 1187.4L948 1030.4L1060.3 994L1283.3 1146Z" fill="#43596D"/>
<path d="M1463.5 1082L1352.9 1121.3L1127.5 972.3L1234.5 937.7L1463.5 1082Z" fill="#43596D"/>
<path d="M1634.9 1021.2L1529.7 1058.6L1298.5 916.9L1400.6 883.9L1634.9 1021.2Z" fill="#43596D"/>
<path d="M1798 963.3L1697.9 998.9L1461.8 864.1L1559.2 832.6L1798 963.3Z" fill="#43596D"/>
<path d="M1953.4 908.1L1858 942L1617.6 813.7L1710.8 783.5L1953.4 908.1Z" fill="#43596D"/>
<path fill-rule="evenodd" clip-rule="evenodd" d="M1042.8 919.6C1019.7 903.3 1031.2 881.2 1067.4 870.1L1316.8 794C1344.7 785.5 1383.9 787.2 1409.7 797.5C1430.6 792.1 1459.7 794.5 1476.8 803.5L1517.3 824.6C1535.3 834 1534.9 847.1 1516.6 854.7C1536.7 869.1 1532.1 887.6 1503.4 897.8L1245.1 989.3C1207.4 1002.7 1154.4 998.5 1128.5 980.1L1042.8 919.6Z" fill="#404079"/>
<path fill-rule="evenodd" clip-rule="evenodd" d="M1109.6 902.1L1196.7 960.4L1249.8 942.4L1161.7 885.6L1109.6 902.1Z" fill="#242B52"/>
<path fill-rule="evenodd" clip-rule="evenodd" d="M1180.8 879.6L1269.3 935.7L1320.2 918.4L1230.8 863.7L1180.8 879.6Z" fill="#242B52"/>
<path fill-rule="evenodd" clip-rule="evenodd" d="M1487.2 861.6L1475.3 855.1L1493.5 848.9C1502.8 845.8 1503.6 839.8 1495.4 835.4L1455 814C1447.2 809.9 1433.5 808.9 1424.4 811.8L1406.3 817.6L1395.2 811.6C1380.1 803.4 1352.9 801.5 1334.2 807.3L1084 884.8C1062.2 891.6 1055.6 904.9 1069.7 914.7L1156 974.3C1171.7 985.1 1203.1 987.6 1225.7 979.8L1483 890C1502.2 883.3 1503.9 870.6 1487.2 861.6ZM1211.1 970C1199.9 973.9 1184.3 972.6 1176.5 967.3L1089.8 908.3C1082.7 903.5 1085.8 896.8 1096.7 893.4L1347.7 814.9C1357.1 812 1370.8 812.9 1378.4 817.1L1403.4 830.8L1443.5 852.8L1470.1 867.4C1478.4 871.9 1477.4 878.3 1467.8 881.6L1211.1 970Z" fill="#242B52"/>
<path fill-rule="evenodd" clip-rule="evenodd" d="M1249.2 857.9L1338.9 912L1387.8 895.4L1297.3 842.7L1249.2 857.9Z" fill="#242B52"/>
<path fill-rule="evenodd" clip-rule="evenodd" d="M1315 837.1L1405.8 889.3L1452.8 873.3L1361.4 822.4L1315 837.1Z" fill="#242B52"/>
<path fill-rule="evenodd" clip-rule="evenodd" d="M1483 884.4L1225.6 974.1C1203 982 1171.6 979.5 1155.9 968.6L1069.6 909C1055.5 899.2 1062.1 885.9 1083.9 879.1L1334.3 801.6C1353 795.8 1380.2 797.7 1395.3 805.9L1406.4 811.9L1424.5 806.1C1433.7 803.2 1447.3 804.1 1455.1 808.3L1495.5 829.7C1503.6 834 1502.8 840 1493.6 843.2L1475.4 849.4L1487.3 855.9C1503.9 864.9 1502.2 877.7 1483 884.4ZM1467.8 875.9C1477.4 872.6 1478.4 866.2 1470.1 861.7L1443.5 847.1L1403.4 825.1L1378.4 811.4C1370.8 807.2 1357.1 806.3 1347.7 809.2L1096.7 887.7C1085.8 891.1 1082.6 897.8 1089.8 902.6L1176.5 961.6C1184.4 966.9 1199.9 968.2 1211.1 964.3L1467.8 875.9Z" fill="#009900"/>
<path d="M1249.8 936.7L1161.7 879.9L1109.7 896.4L1196.8 954.8L1249.8 936.7Z" fill="#00EE00"/>
<path d="M1269.3 930.1L1180.8 873.9L1230.8 858.1L1320.2 912.8L1269.3 930.1Z" fill="#00EE00"/>
<path d="M1338.9 906.4L1249.2 852.3L1297.3 837L1387.8 889.7L1338.9 906.4Z" fill="#00EE00"/>
<path d="M1405.8 883.6L1315 831.4L1361.5 816.8L1452.9 867.6L1405.8 883.6Z" fill="#00EE00"/>
<path d="M783.1 1230.9C783.6 1235.2 773.3 1239.9 760.1 1241.3C746.9 1242.7 735.9 1240.3 735.4 1235.9C734.9 1231.5 745.2 1226.9 758.4 1225.5C771.6 1224.2 782.6 1226.6 783.1 1230.9Z" fill="#9FA8B6"/>
<path d="M783.1 1230.9L735.4 1235.9L723.5 1113.6L771.2 1108.6L783.1 1230.9Z" fill="#9FA8B6"/>
<path opacity="0.2" d="M765.7 1239.1C771.6 1237.6 776.9 1235.7 780.1 1232.6L768 1109L753.1 1110.6L765.7 1239.1Z" fill="black"/>
<path opacity="0.2" d="M751.1 1239.8C747.1 1239.7 743.2 1239.2 739.5 1236.8L727.5 1113.2L738.7 1112L751.1 1239.8Z" fill="white"/>
<path d="M771.2 1108.6C771.6 1112.3 761.2 1116.5 748.1 1117.9C734.9 1119.3 724 1117.4 723.6 1113.6C723.2 1109.9 733.6 1105.7 746.7 1104.3C759.8 1103 770.8 1104.9 771.2 1108.6Z" fill="#E6E7E8"/>
<path d="M748.787 1125.2C768.34 1123.15 783.644 1116.28 782.969 1109.85C782.295 1103.43 765.897 1099.88 746.344 1101.93C726.79 1103.99 711.486 1110.86 712.161 1117.29C712.836 1123.71 729.233 1127.26 748.787 1125.2Z" fill="#9FA8B6"/>
<path d="M761.99 910.109L691.281 917.531L712.255 1117.33L782.964 1109.9L761.99 910.109Z" fill="#9FA8B6"/>
<path opacity="0.2" d="M757.1 1122C765.9 1119.7 773.7 1116.9 778.4 1112.4L757.2 910.6L735.1 912.9L757.1 1122Z" fill="white"/>
<path opacity="0.2" d="M735.5 1123.1C729.5 1122.9 723.8 1122.2 718.3 1118.7L697.1 917L713.7 915.3L735.5 1123.1Z" fill="black"/>
<path d="M762 910.1C762.6 915.7 747.2 921.8 727.7 923.9C708.2 925.9 691.9 923.1 691.3 917.5C690.7 911.9 706.1 905.8 725.6 903.7C745.1 901.7 761.4 904.5 762 910.1Z" fill="#D0D2D3"/>
<path d="M1108.18 1121.02L1020.62 1046.75L663.122 1487.88L750.794 1562.14L1108.18 1121.02Z" fill="black"/>
<path d="M683.231 1138.79C584.494 1260.61 575.556 1416.91 663.122 1487.88C750.794 1558.85 901.772 1517.67 1000.51 1395.84C1099.25 1274.02 1108.18 1117.72 1020.51 1046.75C932.947 975.786 781.968 1016.96 683.231 1138.79Z" fill="black"/>
<path d="M777.712 1218.69C678.975 1340.52 666.952 1494.37 750.793 1562.25C834.635 1630.13 982.634 1586.4 1081.26 1464.58C1180 1342.75 1192.03 1188.9 1108.18 1121.02C1024.34 1053.14 876.449 1096.87 777.712 1218.69Z" fill="#1A1A1A"/>
<path d="M815.483 1249.76C744.835 1337.01 736.11 1447.23 796.225 1495.86C856.234 1544.48 962.206 1513.2 1032.96 1425.96C1103.61 1338.71 1112.33 1228.48 1052.22 1179.86C992.21 1131.23 886.238 1162.51 815.483 1249.76Z" fill="#E9E9EA"/>
<path d="M819.846 1253.27C752.283 1336.69 742.388 1440.74 797.821 1485.64C853.255 1530.54 953.056 1499.37 1020.62 1415.85C1088.18 1332.43 1098.08 1228.37 1042.64 1183.37C987.21 1138.57 887.408 1169.86 819.846 1253.27Z" fill="#E9E9EA"/>
<path d="M824.74 1257.21C766.647 1329.03 758.028 1418.4 805.588 1457.02C853.148 1495.54 938.905 1468.62 997.104 1396.91C1055.3 1325.09 1063.82 1235.72 1016.15 1197.09C968.59 1158.58 882.833 1185.5 824.74 1257.21Z" fill="#242B52"/>
<path d="M1069.14 1287.64L1047.01 1275.08L991.466 1281.68L1039.98 1193.69L981.039 1167.41L957.737 1170.39L909.858 1261.68L852.191 1328.81L775.797 1364.56L768.881 1389.25L797.29 1463.41L872.726 1411.59L869.959 1474.05L888.898 1494.9L967.1 1457.34L960.823 1369.14L1043.6 1372.12L1069.14 1287.64Z" fill="#B4BDC5"/>
<path d="M981.039 1167.41C1004.34 1169.64 1024.13 1178.26 1039.98 1193.8L980.613 1301.36L1069.14 1287.64C1067.33 1314.98 1056.9 1347.22 1043.49 1372.12L960.717 1369.14L966.994 1457.24C945.395 1473.52 917.519 1488.62 888.792 1494.9L892.516 1397.87L797.183 1463.41C776.436 1447.98 771.541 1419.46 768.775 1389.25L870.81 1344.99L799.949 1283.91C820.378 1251.78 843.147 1226.57 868.576 1207.73L923.69 1280.08L981.039 1167.41Z" fill="#E9E9EA"/>
<path d="M890.919 1310.09C869.214 1336.79 866.661 1370.52 884.961 1385.52C903.368 1400.42 935.819 1390.84 957.524 1364.14C979.23 1337.43 981.783 1303.7 963.483 1288.7C945.076 1273.81 912.518 1283.38 890.919 1310.09Z" fill="#B4BDC5"/>
<path d="M900.496 1317.75C889.749 1330.94 888.473 1347.75 897.516 1355.09C906.667 1362.44 922.733 1357.75 933.479 1344.45C944.225 1331.26 945.502 1314.45 936.458 1307.11C927.308 1299.77 911.242 1304.56 900.496 1317.75Z" fill="#E9E9EA"/>
<path d="M2369.7 644.9L2288.5 606.2L2106.5 1011.7L2187.7 1050.4L2369.7 644.9Z" fill="black"/>
<path d="M2051.7 743.5C2001.4 855.5 2026 975.6 2106.5 1011.7C2187 1047.9 2293.1 986.4 2343.3 874.4C2393.6 762.4 2369 642.3 2288.5 606.2C2208 570.1 2101.9 631.5 2051.7 743.5Z" fill="black"/>
<path d="M2139.2 785C2088.9 897 2110.6 1015.8 2187.7 1050.4C2264.7 1085 2368 1022.2 2418.2 910.3C2468.5 798.3 2446.7 679.5 2369.7 644.9C2292.6 610.3 2189.4 673 2139.2 785Z" fill="#1A1A1A"/>
<path d="M2174 801C2138 881.2 2152.4 965.8 2206.2 990C2260 1014.2 2332.8 968.7 2368.8 888.5C2404.8 808.3 2390.4 723.7 2336.6 699.5C2282.8 675.3 2210 720.8 2174 801Z" fill="#E9E9EA"/>
<path d="M2182.5 804.8C2152.9 870.8 2163.3 939.7 2205.8 958.8C2248.3 977.9 2306.7 939.8 2336.3 873.9C2365.9 807.9 2355.5 739 2313 719.9C2270.5 700.8 2212.1 738.8 2182.5 804.8Z" fill="#242B52"/>
<path d="M2370.3 777.2L2352.3 772.4L2313.4 788.6L2332.9 713.2L2284.9 704.9L2268.2 711.7L2249.5 790.7L2218.9 853.6L2167.6 897.6L2167.2 917.7L2203.3 965.9L2249.9 910.4L2259.4 956.6L2277.1 967.3L2326.8 922.3L2306.8 859.7L2366.6 844.1L2370.3 777.2Z" fill="#B4BDC5"/>
<path d="M2284.9 704.9C2302.5 702 2318.6 704.7 2332.9 713.3L2309 805.6L2370.3 777.3C2373.7 797.7 2371.8 823.4 2366.6 844.3L2306.8 859.9L2326.9 922.5C2314.3 939.1 2296.8 956.4 2277.1 967.5L2262.1 896L2203.3 966.1C2184.6 959.6 2175.3 939.7 2167.2 917.8L2236 861.6L2170.3 831.2C2179.7 802.3 2192.2 778.1 2208 758.4L2263.3 801.7L2284.9 704.9Z" fill="#E9E9EA"/>
<path d="M2243.2 831.5C2232.2 856.1 2236.9 882.1 2253.8 889.7C2270.7 897.3 2293.4 883.5 2304.4 858.9C2315.4 834.3 2310.7 808.3 2293.8 800.7C2276.8 793.2 2254.2 806.9 2243.2 831.5Z" fill="#B4BDC5"/>
<path d="M2251.9 835.4C2246.4 847.6 2248.8 860.5 2257.2 864.2C2265.6 868 2276.8 861.1 2282.3 849C2287.8 836.8 2285.4 823.9 2277 820.2C2268.6 816.4 2257.4 823.2 2251.9 835.4Z" fill="#E9E9EA"/>
<path d="M1054.38 1443.89C1137 1342.25 1149.82 1215.83 1083.02 1161.53C1016.22 1107.22 895.083 1145.6 812.461 1247.24C729.839 1348.88 717.014 1475.3 783.817 1529.6C850.62 1583.9 971.753 1545.53 1054.38 1443.89Z" fill="#999999"/>
<path d="M1064.24 1215.93L1027.75 1287.32C1021.68 1299.24 1022.32 1311.15 1029.34 1316.79L1071.37 1350.94C1087.01 1363.71 1068.71 1399.46 1044.66 1403.19L980.081 1413.19C969.335 1414.89 957.95 1424.04 951.886 1435.96L915.391 1507.35C901.772 1533.95 869.427 1538.95 868.151 1514.69L864.746 1449.47C864.214 1438.62 856.447 1432.34 845.701 1434.04L781.117 1444.04C757.071 1447.77 755.369 1415 778.564 1396.27L841.019 1346.05C851.446 1337.64 858.043 1324.66 857.511 1313.71L854.106 1248.48C852.829 1224.12 884.11 1198.9 899.857 1211.67L941.884 1245.82C948.907 1251.57 960.717 1249.65 971.037 1241.35L1033.49 1191.14C1056.79 1172.2 1077.86 1189.33 1064.24 1215.93Z" fill="#444444"/>
<path d="M950.178 1359.19C961.595 1345.15 963.346 1327.66 954.089 1320.14C944.833 1312.62 928.074 1317.9 916.657 1331.95C905.24 1345.99 903.489 1363.48 912.746 1371C922.003 1378.52 938.762 1373.24 950.178 1359.19Z" fill="#B4BDC5"/>
<path d="M2398.81 903.06C2438.98 814.067 2420.99 719.103 2358.62 690.952C2296.26 662.801 2213.13 712.122 2172.96 801.115C2132.79 890.108 2150.78 985.072 2213.15 1013.22C2275.52 1041.37 2358.64 992.053 2398.81 903.06Z" fill="#999999"/>
<path d="M2356.6 734L2344.7 792.7C2342.7 802.5 2345.8 811.1 2352.3 814.1L2391.5 831.8C2406.1 838.4 2400.1 867.9 2382.8 874.8L2336.2 893.4C2328.4 896.5 2321.8 905.2 2319.8 915L2307.9 973.7C2303.5 995.6 2280.1 1004.9 2273.8 987.3L2256.9 940.1C2254.1 932.2 2246.9 929 2239.2 932.1L2192.6 950.7C2175.2 957.6 2166.8 933.9 2180.2 916.1L2216.4 868.3C2222.4 860.3 2224.6 849.6 2221.8 841.7L2204.9 794.5C2198.6 776.9 2216.7 752.9 2231.4 759.5L2270.6 777.2C2277.1 780.2 2285.7 776.8 2291.7 768.8L2327.9 721C2341.3 703.3 2361 712.1 2356.6 734Z" fill="#444444"/>
<path d="M2301.47 859.119C2307.03 846.787 2304.57 833.64 2295.96 829.755C2287.35 825.869 2275.86 832.717 2270.3 845.049C2264.73 857.381 2267.2 870.528 2275.8 874.413C2284.41 878.299 2295.9 871.451 2301.47 859.119Z" fill="#B4BDC5"/>
</svg>
